<svg aria-roledescription="er" role="graphics-document document" viewBox="0 0 588.9581298828125 711.5" style="max-width: 588.958px; background-color: white;" xmlns:xlink="http://www.w3.org/1999/xlink" xmlns="http://www.w3.org/2000/svg" width="100%" id="my-svg"><style>#my-svg{font-family:"trebuchet ms",verdana,arial,sans-serif;font-size:16px;fill:#000000;}#my-svg .error-icon{fill:#552222;}#my-svg .error-text{fill:#552222;stroke:#552222;}#my-svg .edge-thickness-normal{stroke-width:2px;}#my-svg .edge-thickness-thick{stroke-width:3.5px;}#my-svg .edge-pattern-solid{stroke-dasharray:0;}#my-svg .edge-pattern-dashed{stroke-dasharray:3;}#my-svg .edge-pattern-dotted{stroke-dasharray:2;}#my-svg .marker{fill:#000000;stroke:#000000;}#my-svg .marker.cross{stroke:#000000;}#my-svg svg{font-family:"trebuchet ms",verdana,arial,sans-serif;font-size:16px;}#my-svg .entityBox{fill:#cde498;stroke:#13540c;}#my-svg .attributeBoxOdd{fill:#ffffff;stroke:#13540c;}#my-svg .attributeBoxEven{fill:#f2f2f2;stroke:#13540c;}#my-svg .relationshipLabelBox{fill:hsl(78.1578947368, 58.4615384615%, 84.5098039216%);opacity:0.7;background-color:hsl(78.1578947368, 58.4615384615%, 84.5098039216%);}#my-svg .relationshipLabelBox rect{opacity:0.5;}#my-svg .relationshipLine{stroke:#000000;}#my-svg .entityTitleText{text-anchor:middle;font-size:18px;fill:#000000;}#my-svg #MD_PARENT_START{fill:#f5f5f5!important;stroke:#000000!important;stroke-width:1;}#my-svg #MD_PARENT_END{fill:#f5f5f5!important;stroke:#000000!important;stroke-width:1;}#my-svg :root{--mermaid-font-family:"trebuchet ms",verdana,arial,sans-serif;}</style><g/><defs><marker orient="auto" markerHeight="240" markerWidth="190" refY="7" refX="0" id="MD_PARENT_START"><path d="M 18,7 L9,13 L1,7 L9,1 Z"/></marker></defs><defs><marker orient="auto" markerHeight="28" markerWidth="20" refY="7" refX="19" id="MD_PARENT_END"><path d="M 18,7 L9,13 L1,7 L9,1 Z"/></marker></defs><defs><marker orient="auto" markerHeight="18" markerWidth="18" refY="9" refX="0" id="ONLY_ONE_START"><path d="M9,0 L9,18 M15,0 L15,18" fill="none" stroke="gray"/></marker></defs><defs><marker orient="auto" markerHeight="18" markerWidth="18" refY="9" refX="18" id="ONLY_ONE_END"><path d="M3,0 L3,18 M9,0 L9,18" fill="none" stroke="gray"/></marker></defs><defs><marker orient="auto" markerHeight="18" markerWidth="30" refY="9" refX="0" id="ZERO_OR_ONE_START"><circle r="6" cy="9" cx="21" fill="white" stroke="gray"/><path d="M9,0 L9,18" fill="none" stroke="gray"/></marker></defs><defs><marker orient="auto" markerHeight="18" markerWidth="30" refY="9" refX="30" id="ZERO_OR_ONE_END"><circle r="6" cy="9" cx="9" fill="white" stroke="gray"/><path d="M21,0 L21,18" fill="none" stroke="gray"/></marker></defs><defs><marker orient="auto" markerHeight="36" markerWidth="45" refY="18" refX="18" id="ONE_OR_MORE_START"><path d="M0,18 Q 18,0 36,18 Q 18,36 0,18 M42,9 L42,27" fill="none" stroke="gray"/></marker></defs><defs><marker orient="auto" markerHeight="36" markerWidth="45" refY="18" refX="27" id="ONE_OR_MORE_END"><path d="M3,9 L3,27 M9,18 Q27,0 45,18 Q27,36 9,18" fill="none" stroke="gray"/></marker></defs><defs><marker orient="auto" markerHeight="36" markerWidth="57" refY="18" refX="18" id="ZERO_OR_MORE_START"><circle r="6" cy="18" cx="48" fill="white" stroke="gray"/><path d="M0,18 Q18,0 36,18 Q18,36 0,18" fill="none" stroke="gray"/></marker></defs><defs><marker orient="auto" markerHeight="36" markerWidth="57" refY="18" refX="39" id="ZERO_OR_MORE_END"><circle r="6" cy="18" cx="9" fill="white" stroke="gray"/><path d="M21,18 Q39,0 57,18 Q39,36 21,18" fill="none" stroke="gray"/></marker></defs><path style="stroke: gray; fill: none;" marker-start="url(#ZERO_OR_MORE_START)" marker-end="url(#ZERO_OR_MORE_END)" d="M300.75390625,164.71070240978693L285.1002604166667,175.34225200815578C269.4466145833333,185.9738016065246,238.13932291666666,207.2369008032623,220.07366705939558,226.2017837349645C202.0080112021245,245.16666666666666,197.18399115424896,261.8333333333333,194.77198113031116,270.1666666666667L192.35997110637342,278.5" class="er relationshipLine"/><path style="stroke: gray; fill: none;" marker-start="url(#ZERO_OR_MORE_START)" marker-end="url(#ZERO_OR_MORE_END)" d="M489.10963944632493,178.5L498.7808193302708,186.83333333333334C508.45199921421664,195.16666666666666,527.7943589821083,211.83333333333334,537.4655388660541,243.375C547.13671875,274.9166666666667,547.13671875,321.3333333333333,547.13671875,367.75C547.13671875,414.1666666666667,547.13671875,460.5833333333333,534.6848958333334,493.5248415798612C522.2330729166666,526.4663498263889,497.3294270833333,545.9326996527778,484.8776041666667,555.6658745659723L472.42578125,565.3990494791667" class="er relationshipLine"/><path style="stroke: gray; fill: none;" marker-start="url(#ZERO_OR_ONE_START)" marker-end="url(#ONLY_ONE_END)" d="M114.99478231597845,457L110.18315192998205,465.3333333333333C105.37152154398564,473.6666666666667,95.74826077199282,490.3333333333333,90.93663038599641,508.875C86.125,527.4166666666666,86.125,547.8333333333334,86.125,558.0416666666666L86.125,568.25" class="er relationshipLine"/><path style="stroke: gray; fill: none;" marker-start="url(#ZERO_OR_MORE_START)" marker-end="url(#ZERO_OR_MORE_END)" d="M247.13671875,407.75171223342056L280.4700520833333,424.2930935278505C313.8033854166667,440.83447482228036,380.4700520833333,473.9172374111402,410.24972514658845,498.79195203890345C440.0293982098436,523.6666666666666,432.92207766968727,540.3333333333334,429.3684173996091,548.6666666666666L425.8147571295309,557" class="er relationshipLine"/><path style="stroke: gray; fill: none;" marker-start="url(#ZERO_OR_ONE_START)" marker-end="url(#ZERO_OR_ONE_END)" d="M114.99478231597845,278.5L110.18315192998205,270.1666666666667C105.37152154398564,261.8333333333333,95.74826077199282,245.16666666666666,126.70811476099641,221.96744861988554C157.66796875,198.76823057310443,229.2109375,169.0364611462088,264.982421875,154.170576432761L300.75390625,139.3046917193132" class="er relationshipLine"/><path style="stroke: gray; fill: none;" marker-start="url(#ZERO_OR_ONE_START)" marker-end="url(#ZERO_OR_ONE_END)" d="M368.4586803704691,557L364.9050201003909,548.6666666666666C361.35135983031273,540.3333333333334,354.2440392901564,523.6666666666666,350.6903790200782,492.125C347.13671875,460.5833333333333,347.13671875,414.1666666666667,347.13671875,367.75C347.13671875,321.3333333333333,347.13671875,274.9166666666667,350.36044537798193,243.375C353.58417200596386,211.83333333333334,360.0316252619278,195.16666666666666,363.2553518899097,186.83333333333334L366.4790785178917,178.5" class="er relationshipLine"/><path style="stroke: gray; fill: none;" marker-start="url(#ZERO_OR_ONE_START)" marker-end="url(#ZERO_OR_ONE_END)" d="M321.84765625,577.8631101440945L302.6783854166667,566.0525917867454C283.5091145833333,554.2420734293963,245.17057291666666,530.6210367146982,223.58929205939558,510.4771850240158C202.0080112021245,490.3333333333333,197.18399115424896,473.6666666666667,194.77198113031116,465.3333333333333L192.35997110637342,457" class="er relationshipLine"/><g transform="translate(20,568.25 )" id="entity-UploadStatus-3a95c161-75cb-5fc9-a61d-9da035d44a6d"><rect height="112" width="132.25" y="0" x="0" class="er entityBox"/><text style="dominant-baseline: middle; text-anchor: middle; font-size: 12px;" transform="translate(66.125,12)" y="0" x="0" id="text-entity-UploadStatus-3a95c161-75cb-5fc9-a61d-9da035d44a6d" class="er entityLabel">UploadStatus</text><rect height="22" width="66.125" y="24" x="0" class="er attributeBoxOdd"/><text style="dominant-baseline: middle; font-size: 10.2px;" transform="translate(5,35)" y="0" x="0" id="text-entity-UploadStatus-3a95c161-75cb-5fc9-a61d-9da035d44a6d-attr-1-type" class="er entityLabel">PENDING</text><rect height="22" width="66.125" y="24" x="66.125" class="er attributeBoxOdd"/><text style="dominant-baseline: middle; font-size: 10.2px;" transform="translate(71.125,35)" y="0" x="0" id="text-entity-UploadStatus-3a95c161-75cb-5fc9-a61d-9da035d44a6d-attr-1-name" class="er entityLabel">PENDING</text><rect height="22" width="66.125" y="46" x="0" class="er attributeBoxEven"/><text style="dominant-baseline: middle; font-size: 10.2px;" transform="translate(5,57)" y="0" x="0" id="text-entity-UploadStatus-3a95c161-75cb-5fc9-a61d-9da035d44a6d-attr-2-type" class="er entityLabel">PROCESSING</text><rect height="22" width="66.125" y="46" x="66.125" class="er attributeBoxEven"/><text style="dominant-baseline: middle; font-size: 10.2px;" transform="translate(71.125,57)" y="0" x="0" id="text-entity-UploadStatus-3a95c161-75cb-5fc9-a61d-9da035d44a6d-attr-2-name" class="er entityLabel">PROCESSING</text><rect height="22" width="66.125" y="68" x="0" class="er attributeBoxOdd"/><text style="dominant-baseline: middle; font-size: 10.2px;" transform="translate(5,79)" y="0" x="0" id="text-entity-UploadStatus-3a95c161-75cb-5fc9-a61d-9da035d44a6d-attr-3-type" class="er entityLabel">FAILED</text><rect height="22" width="66.125" y="68" x="66.125" class="er attributeBoxOdd"/><text style="dominant-baseline: middle; font-size: 10.2px;" transform="translate(71.125,79)" y="0" x="0" id="text-entity-UploadStatus-3a95c161-75cb-5fc9-a61d-9da035d44a6d-attr-3-name" class="er entityLabel">FAILED</text><rect height="22" width="66.125" y="90" x="0" class="er attributeBoxEven"/><text style="dominant-baseline: middle; font-size: 10.2px;" transform="translate(5,101)" y="0" x="0" id="text-entity-UploadStatus-3a95c161-75cb-5fc9-a61d-9da035d44a6d-attr-4-type" class="er entityLabel">SUCCESS</text><rect height="22" width="66.125" y="90" x="66.125" class="er attributeBoxEven"/><text style="dominant-baseline: middle; font-size: 10.2px;" transform="translate(71.125,101)" y="0" x="0" id="text-entity-UploadStatus-3a95c161-75cb-5fc9-a61d-9da035d44a6d-attr-4-name" class="er entityLabel">SUCCESS</text></g><g transform="translate(300.75390625,20 )" id="entity-User-818c511a-4a32-5484-ba70-875d765a9175"><rect height="158.5" width="192.765625" y="0" x="0" class="er entityBox"/><text style="dominant-baseline: middle; text-anchor: middle; font-size: 12px;" transform="translate(96.3828125,12)" y="0" x="0" id="text-entity-User-818c511a-4a32-5484-ba70-875d765a9175" class="er entityLabel">User</text><rect height="22.5" width="53.6640625" y="24" x="0" class="er attributeBoxOdd"/><text style="dominant-baseline: middle; font-size: 10.2px;" transform="translate(5,35.25)" y="0" x="0" id="text-entity-User-818c511a-4a32-5484-ba70-875d765a9175-attr-1-type" class="er entityLabel">String</text><rect height="22.5" width="116.6015625" y="24" x="53.6640625" class="er attributeBoxOdd"/><text style="dominant-baseline: middle; font-size: 10.2px;" transform="translate(58.6640625,35.25)" y="0" x="0" id="text-entity-User-818c511a-4a32-5484-ba70-875d765a9175-attr-1-name" class="er entityLabel">id</text><rect height="22.5" width="22.5" y="24" x="170.265625" class="er attributeBoxOdd"/><text style="dominant-baseline: middle; font-size: 10.2px;" transform="translate(175.265625,35.25)" y="0" x="0" id="text-entity-User-818c511a-4a32-5484-ba70-875d765a9175-attr-1-comment" class="er entityLabel">🗝️</text><rect height="22" width="53.6640625" y="46.5" x="0" class="er attributeBoxEven"/><text style="dominant-baseline: middle; font-size: 10.2px;" transform="translate(5,57.5)" y="0" x="0" id="text-entity-User-818c511a-4a32-5484-ba70-875d765a9175-attr-2-type" class="er entityLabel">String</text><rect height="22" width="116.6015625" y="46.5" x="53.6640625" class="er attributeBoxEven"/><text style="dominant-baseline: middle; font-size: 10.2px;" transform="translate(58.6640625,57.5)" y="0" x="0" id="text-entity-User-818c511a-4a32-5484-ba70-875d765a9175-attr-2-name" class="er entityLabel">email</text><rect height="22" width="22.5" y="46.5" x="170.265625" class="er attributeBoxEven"/><text style="dominant-baseline: middle; font-size: 10.2px;" transform="translate(175.265625,57.5)" y="0" x="0" id="text-entity-User-818c511a-4a32-5484-ba70-875d765a9175-attr-2-comment" class="er entityLabel"/><rect height="22.5" width="53.6640625" y="68.5" x="0" class="er attributeBoxOdd"/><text style="dominant-baseline: middle; font-size: 10.2px;" transform="translate(5,79.75)" y="0" x="0" id="text-entity-User-818c511a-4a32-5484-ba70-875d765a9175-attr-3-type" class="er entityLabel">String</text><rect height="22.5" width="116.6015625" y="68.5" x="53.6640625" class="er attributeBoxOdd"/><text style="dominant-baseline: middle; font-size: 10.2px;" transform="translate(58.6640625,79.75)" y="0" x="0" id="text-entity-User-818c511a-4a32-5484-ba70-875d765a9175-attr-3-name" class="er entityLabel">stripeCustomerId</text><rect height="22.5" width="22.5" y="68.5" x="170.265625" class="er attributeBoxOdd"/><text style="dominant-baseline: middle; font-size: 10.2px;" transform="translate(175.265625,79.75)" y="0" x="0" id="text-entity-User-818c511a-4a32-5484-ba70-875d765a9175-attr-3-comment" class="er entityLabel">❓</text><rect height="22.5" width="53.6640625" y="91" x="0" class="er attributeBoxEven"/><text style="dominant-baseline: middle; font-size: 10.2px;" transform="translate(5,102.25)" y="0" x="0" id="text-entity-User-818c511a-4a32-5484-ba70-875d765a9175-attr-4-type" class="er entityLabel">String</text><rect height="22.5" width="116.6015625" y="91" x="53.6640625" class="er attributeBoxEven"/><text style="dominant-baseline: middle; font-size: 10.2px;" transform="translate(58.6640625,102.25)" y="0" x="0" id="text-entity-User-818c511a-4a32-5484-ba70-875d765a9175-attr-4-name" class="er entityLabel">stripeSubscriptionId</text><rect height="22.5" width="22.5" y="91" x="170.265625" class="er attributeBoxEven"/><text style="dominant-baseline: middle; font-size: 10.2px;" transform="translate(175.265625,102.25)" y="0" x="0" id="text-entity-User-818c511a-4a32-5484-ba70-875d765a9175-attr-4-comment" class="er entityLabel">❓</text><rect height="22.5" width="53.6640625" y="113.5" x="0" class="er attributeBoxOdd"/><text style="dominant-baseline: middle; font-size: 10.2px;" transform="translate(5,124.75)" y="0" x="0" id="text-entity-User-818c511a-4a32-5484-ba70-875d765a9175-attr-5-type" class="er entityLabel">String</text><rect height="22.5" width="116.6015625" y="113.5" x="53.6640625" class="er attributeBoxOdd"/><text style="dominant-baseline: middle; font-size: 10.2px;" transform="translate(58.6640625,124.75)" y="0" x="0" id="text-entity-User-818c511a-4a32-5484-ba70-875d765a9175-attr-5-name" class="er entityLabel">stripePriceId</text><rect height="22.5" width="22.5" y="113.5" x="170.265625" class="er attributeBoxOdd"/><text style="dominant-baseline: middle; font-size: 10.2px;" transform="translate(175.265625,124.75)" y="0" x="0" id="text-entity-User-818c511a-4a32-5484-ba70-875d765a9175-attr-5-comment" class="er entityLabel">❓</text><rect height="22.5" width="53.6640625" y="136" x="0" class="er attributeBoxEven"/><text style="dominant-baseline: middle; font-size: 10.2px;" transform="translate(5,147.25)" y="0" x="0" id="text-entity-User-818c511a-4a32-5484-ba70-875d765a9175-attr-6-type" class="er entityLabel">DateTime</text><rect height="22.5" width="116.6015625" y="136" x="53.6640625" class="er attributeBoxEven"/><text style="dominant-baseline: middle; font-size: 10.2px;" transform="translate(58.6640625,147.25)" y="0" x="0" id="text-entity-User-818c511a-4a32-5484-ba70-875d765a9175-attr-6-name" class="er entityLabel">stripeCurrentPeriodEnd</text><rect height="22.5" width="22.5" y="136" x="170.265625" class="er attributeBoxEven"/><text style="dominant-baseline: middle; font-size: 10.2px;" transform="translate(175.265625,147.25)" y="0" x="0" id="text-entity-User-818c511a-4a32-5484-ba70-875d765a9175-attr-6-comment" class="er entityLabel">❓</text></g><g transform="translate(85.91796875,278.5 )" id="entity-File-941e3472-abf7-5fc8-a371-2df9760a56a1"><rect height="178.5" width="161.21875" y="0" x="0" class="er entityBox"/><text style="dominant-baseline: middle; text-anchor: middle; font-size: 12px;" transform="translate(80.609375,12)" y="0" x="0" id="text-entity-File-941e3472-abf7-5fc8-a371-2df9760a56a1" class="er entityLabel">File</text><rect height="22.5" width="69.8828125" y="24" x="0" class="er attributeBoxOdd"/><text style="dominant-baseline: middle; font-size: 10.2px;" transform="translate(5,35.25)" y="0" x="0" id="text-entity-File-941e3472-abf7-5fc8-a371-2df9760a56a1-attr-1-type" class="er entityLabel">String</text><rect height="22.5" width="68.8359375" y="24" x="69.8828125" class="er attributeBoxOdd"/><text style="dominant-baseline: middle; font-size: 10.2px;" transform="translate(74.8828125,35.25)" y="0" x="0" id="text-entity-File-941e3472-abf7-5fc8-a371-2df9760a56a1-attr-1-name" class="er entityLabel">id</text><rect height="22.5" width="22.5" y="24" x="138.71875" class="er attributeBoxOdd"/><text style="dominant-baseline: middle; font-size: 10.2px;" transform="translate(143.71875,35.25)" y="0" x="0" id="text-entity-File-941e3472-abf7-5fc8-a371-2df9760a56a1-attr-1-comment" class="er entityLabel">🗝️</text><rect height="22" width="69.8828125" y="46.5" x="0" class="er attributeBoxEven"/><text style="dominant-baseline: middle; font-size: 10.2px;" transform="translate(5,57.5)" y="0" x="0" id="text-entity-File-941e3472-abf7-5fc8-a371-2df9760a56a1-attr-2-type" class="er entityLabel">String</text><rect height="22" width="68.8359375" y="46.5" x="69.8828125" class="er attributeBoxEven"/><text style="dominant-baseline: middle; font-size: 10.2px;" transform="translate(74.8828125,57.5)" y="0" x="0" id="text-entity-File-941e3472-abf7-5fc8-a371-2df9760a56a1-attr-2-name" class="er entityLabel">name</text><rect height="22" width="22.5" y="46.5" x="138.71875" class="er attributeBoxEven"/><text style="dominant-baseline: middle; font-size: 10.2px;" transform="translate(143.71875,57.5)" y="0" x="0" id="text-entity-File-941e3472-abf7-5fc8-a371-2df9760a56a1-attr-2-comment" class="er entityLabel"/><rect height="22" width="69.8828125" y="68.5" x="0" class="er attributeBoxOdd"/><text style="dominant-baseline: middle; font-size: 10.2px;" transform="translate(5,79.5)" y="0" x="0" id="text-entity-File-941e3472-abf7-5fc8-a371-2df9760a56a1-attr-3-type" class="er entityLabel">UploadStatus</text><rect height="22" width="68.8359375" y="68.5" x="69.8828125" class="er attributeBoxOdd"/><text style="dominant-baseline: middle; font-size: 10.2px;" transform="translate(74.8828125,79.5)" y="0" x="0" id="text-entity-File-941e3472-abf7-5fc8-a371-2df9760a56a1-attr-3-name" class="er entityLabel">uploadStatus</text><rect height="22" width="22.5" y="68.5" x="138.71875" class="er attributeBoxOdd"/><text style="dominant-baseline: middle; font-size: 10.2px;" transform="translate(143.71875,79.5)" y="0" x="0" id="text-entity-File-941e3472-abf7-5fc8-a371-2df9760a56a1-attr-3-comment" class="er entityLabel"/><rect height="22" width="69.8828125" y="90.5" x="0" class="er attributeBoxEven"/><text style="dominant-baseline: middle; font-size: 10.2px;" transform="translate(5,101.5)" y="0" x="0" id="text-entity-File-941e3472-abf7-5fc8-a371-2df9760a56a1-attr-4-type" class="er entityLabel">String</text><rect height="22" width="68.8359375" y="90.5" x="69.8828125" class="er attributeBoxEven"/><text style="dominant-baseline: middle; font-size: 10.2px;" transform="translate(74.8828125,101.5)" y="0" x="0" id="text-entity-File-941e3472-abf7-5fc8-a371-2df9760a56a1-attr-4-name" class="er entityLabel">url</text><rect height="22" width="22.5" y="90.5" x="138.71875" class="er attributeBoxEven"/><text style="dominant-baseline: middle; font-size: 10.2px;" transform="translate(143.71875,101.5)" y="0" x="0" id="text-entity-File-941e3472-abf7-5fc8-a371-2df9760a56a1-attr-4-comment" class="er entityLabel"/><rect height="22" width="69.8828125" y="112.5" x="0" class="er attributeBoxOdd"/><text style="dominant-baseline: middle; font-size: 10.2px;" transform="translate(5,123.5)" y="0" x="0" id="text-entity-File-941e3472-abf7-5fc8-a371-2df9760a56a1-attr-5-type" class="er entityLabel">String</text><rect height="22" width="68.8359375" y="112.5" x="69.8828125" class="er attributeBoxOdd"/><text style="dominant-baseline: middle; font-size: 10.2px;" transform="translate(74.8828125,123.5)" y="0" x="0" id="text-entity-File-941e3472-abf7-5fc8-a371-2df9760a56a1-attr-5-name" class="er entityLabel">key</text><rect height="22" width="22.5" y="112.5" x="138.71875" class="er attributeBoxOdd"/><text style="dominant-baseline: middle; font-size: 10.2px;" transform="translate(143.71875,123.5)" y="0" x="0" id="text-entity-File-941e3472-abf7-5fc8-a371-2df9760a56a1-attr-5-comment" class="er entityLabel"/><rect height="22" width="69.8828125" y="134.5" x="0" class="er attributeBoxEven"/><text style="dominant-baseline: middle; font-size: 10.2px;" transform="translate(5,145.5)" y="0" x="0" id="text-entity-File-941e3472-abf7-5fc8-a371-2df9760a56a1-attr-6-type" class="er entityLabel">DateTime</text><rect height="22" width="68.8359375" y="134.5" x="69.8828125" class="er attributeBoxEven"/><text style="dominant-baseline: middle; font-size: 10.2px;" transform="translate(74.8828125,145.5)" y="0" x="0" id="text-entity-File-941e3472-abf7-5fc8-a371-2df9760a56a1-attr-6-name" class="er entityLabel">createdAt</text><rect height="22" width="22.5" y="134.5" x="138.71875" class="er attributeBoxEven"/><text style="dominant-baseline: middle; font-size: 10.2px;" transform="translate(143.71875,145.5)" y="0" x="0" id="text-entity-File-941e3472-abf7-5fc8-a371-2df9760a56a1-attr-6-comment" class="er entityLabel"/><rect height="22" width="69.8828125" y="156.5" x="0" class="er attributeBoxOdd"/><text style="dominant-baseline: middle; font-size: 10.2px;" transform="translate(5,167.5)" y="0" x="0" id="text-entity-File-941e3472-abf7-5fc8-a371-2df9760a56a1-attr-7-type" class="er entityLabel">DateTime</text><rect height="22" width="68.8359375" y="156.5" x="69.8828125" class="er attributeBoxOdd"/><text style="dominant-baseline: middle; font-size: 10.2px;" transform="translate(74.8828125,167.5)" y="0" x="0" id="text-entity-File-941e3472-abf7-5fc8-a371-2df9760a56a1-attr-7-name" class="er entityLabel">updatedAt</text><rect height="22" width="22.5" y="156.5" x="138.71875" class="er attributeBoxOdd"/><text style="dominant-baseline: middle; font-size: 10.2px;" transform="translate(143.71875,167.5)" y="0" x="0" id="text-entity-File-941e3472-abf7-5fc8-a371-2df9760a56a1-attr-7-comment" class="er entityLabel"/></g><g transform="translate(321.84765625,557 )" id="entity-Message-a3849f5f-6e30-5367-9632-ff041b746560"><rect height="134.5" width="150.578125" y="0" x="0" class="er entityBox"/><text style="dominant-baseline: middle; text-anchor: middle; font-size: 12px;" transform="translate(75.2890625,12)" y="0" x="0" id="text-entity-Message-a3849f5f-6e30-5367-9632-ff041b746560" class="er entityLabel">Message</text><rect height="22.5" width="53.6640625" y="24" x="0" class="er attributeBoxOdd"/><text style="dominant-baseline: middle; font-size: 10.2px;" transform="translate(5,35.25)" y="0" x="0" id="text-entity-Message-a3849f5f-6e30-5367-9632-ff041b746560-attr-1-type" class="er entityLabel">String</text><rect height="22.5" width="74.4140625" y="24" x="53.6640625" class="er attributeBoxOdd"/><text style="dominant-baseline: middle; font-size: 10.2px;" transform="translate(58.6640625,35.25)" y="0" x="0" id="text-entity-Message-a3849f5f-6e30-5367-9632-ff041b746560-attr-1-name" class="er entityLabel">id</text><rect height="22.5" width="22.5" y="24" x="128.078125" class="er attributeBoxOdd"/><text style="dominant-baseline: middle; font-size: 10.2px;" transform="translate(133.078125,35.25)" y="0" x="0" id="text-entity-Message-a3849f5f-6e30-5367-9632-ff041b746560-attr-1-comment" class="er entityLabel">🗝️</text><rect height="22" width="53.6640625" y="46.5" x="0" class="er attributeBoxEven"/><text style="dominant-baseline: middle; font-size: 10.2px;" transform="translate(5,57.5)" y="0" x="0" id="text-entity-Message-a3849f5f-6e30-5367-9632-ff041b746560-attr-2-type" class="er entityLabel">String</text><rect height="22" width="74.4140625" y="46.5" x="53.6640625" class="er attributeBoxEven"/><text style="dominant-baseline: middle; font-size: 10.2px;" transform="translate(58.6640625,57.5)" y="0" x="0" id="text-entity-Message-a3849f5f-6e30-5367-9632-ff041b746560-attr-2-name" class="er entityLabel">text</text><rect height="22" width="22.5" y="46.5" x="128.078125" class="er attributeBoxEven"/><text style="dominant-baseline: middle; font-size: 10.2px;" transform="translate(133.078125,57.5)" y="0" x="0" id="text-entity-Message-a3849f5f-6e30-5367-9632-ff041b746560-attr-2-comment" class="er entityLabel"/><rect height="22" width="53.6640625" y="68.5" x="0" class="er attributeBoxOdd"/><text style="dominant-baseline: middle; font-size: 10.2px;" transform="translate(5,79.5)" y="0" x="0" id="text-entity-Message-a3849f5f-6e30-5367-9632-ff041b746560-attr-3-type" class="er entityLabel">Boolean</text><rect height="22" width="74.4140625" y="68.5" x="53.6640625" class="er attributeBoxOdd"/><text style="dominant-baseline: middle; font-size: 10.2px;" transform="translate(58.6640625,79.5)" y="0" x="0" id="text-entity-Message-a3849f5f-6e30-5367-9632-ff041b746560-attr-3-name" class="er entityLabel">isUserMessage</text><rect height="22" width="22.5" y="68.5" x="128.078125" class="er attributeBoxOdd"/><text style="dominant-baseline: middle; font-size: 10.2px;" transform="translate(133.078125,79.5)" y="0" x="0" id="text-entity-Message-a3849f5f-6e30-5367-9632-ff041b746560-attr-3-comment" class="er entityLabel"/><rect height="22" width="53.6640625" y="90.5" x="0" class="er attributeBoxEven"/><text style="dominant-baseline: middle; font-size: 10.2px;" transform="translate(5,101.5)" y="0" x="0" id="text-entity-Message-a3849f5f-6e30-5367-9632-ff041b746560-attr-4-type" class="er entityLabel">DateTime</text><rect height="22" width="74.4140625" y="90.5" x="53.6640625" class="er attributeBoxEven"/><text style="dominant-baseline: middle; font-size: 10.2px;" transform="translate(58.6640625,101.5)" y="0" x="0" id="text-entity-Message-a3849f5f-6e30-5367-9632-ff041b746560-attr-4-name" class="er entityLabel">createdAt</text><rect height="22" width="22.5" y="90.5" x="128.078125" class="er attributeBoxEven"/><text style="dominant-baseline: middle; font-size: 10.2px;" transform="translate(133.078125,101.5)" y="0" x="0" id="text-entity-Message-a3849f5f-6e30-5367-9632-ff041b746560-attr-4-comment" class="er entityLabel"/><rect height="22" width="53.6640625" y="112.5" x="0" class="er attributeBoxOdd"/><text style="dominant-baseline: middle; font-size: 10.2px;" transform="translate(5,123.5)" y="0" x="0" id="text-entity-Message-a3849f5f-6e30-5367-9632-ff041b746560-attr-5-type" class="er entityLabel">DateTime</text><rect height="22" width="74.4140625" y="112.5" x="53.6640625" class="er attributeBoxOdd"/><text style="dominant-baseline: middle; font-size: 10.2px;" transform="translate(58.6640625,123.5)" y="0" x="0" id="text-entity-Message-a3849f5f-6e30-5367-9632-ff041b746560-attr-5-name" class="er entityLabel">updatedAt</text><rect height="22" width="22.5" y="112.5" x="128.078125" class="er attributeBoxOdd"/><text style="dominant-baseline: middle; font-size: 10.2px;" transform="translate(133.078125,123.5)" y="0" x="0" id="text-entity-Message-a3849f5f-6e30-5367-9632-ff041b746560-attr-5-comment" class="er entityLabel"/></g><rect height="14" width="19.8046875" y="205.0272216796875" x="225.42323303222656" class="er relationshipLabelBox"/><text style="text-anchor: middle; dominant-baseline: middle; font-size: 12px;" y="212.0272216796875" x="235.32557678222656" id="rel1" class="er relationshipLabel">File</text><rect height="14" width="43.6484375" y="368.80169677734375" x="525.3096923828125" class="er relationshipLabelBox"/><text style="text-anchor: middle; dominant-baseline: middle; font-size: 12px;" y="375.80169677734375" x="547.1339111328125" id="rel2" class="er relationshipLabel">Message</text><rect height="14" width="103.2421875" y="503.02203369140625" x="39.02476501464844" class="er relationshipLabelBox"/><text style="text-anchor: middle; dominant-baseline: middle; font-size: 12px;" y="510.02203369140625" x="90.64585876464844" id="rel3" class="er relationshipLabel">enum:uploadStatus</text><rect height="14" width="43.6484375" y="458.9549255371094" x="338.3712463378906" class="er relationshipLabelBox"/><text style="text-anchor: middle; dominant-baseline: middle; font-size: 12px;" y="465.9549255371094" x="360.1954650878906" id="rel4" class="er relationshipLabel">Message</text><rect height="14" width="23.8515625" y="183.90625" x="169.5260467529297" class="er relationshipLabelBox"/><text style="text-anchor: middle; dominant-baseline: middle; font-size: 12px;" y="190.90625" x="181.4518280029297" id="rel5" class="er relationshipLabel">User</text><rect height="14" width="23.8515625" y="360.9939270019531" x="335.2110290527344" class="er relationshipLabelBox"/><text style="text-anchor: middle; dominant-baseline: middle; font-size: 12px;" y="367.9939270019531" x="347.1368103027344" id="rel6" class="er relationshipLabel">User</text><rect height="14" width="19.8046875" y="521.2772216796875" x="235.5049591064453" class="er relationshipLabelBox"/><text style="text-anchor: middle; dominant-baseline: middle; font-size: 12px;" y="528.2772216796875" x="245.4073028564453" id="rel7" class="er relationshipLabel">File</text></svg>